<?xml version="1.0" encoding="UTF-8" standalone="no"?>
<!DOCTYPE svg PUBLIC "-//W3C//DTD SVG 1.1//EN" "http://www.w3.org/Graphics/SVG/1.1/DTD/svg11.dtd">
<svg width="100%" height="100%" viewBox="-6 -6 136 257" version="1.1" xmlns="http://www.w3.org/2000/svg" xmlns:xlink="http://www.w3.org/1999/xlink" xml:space="preserve" xmlns:serif="http://www.serif.com/" overflow="visible" style="fill-rule:evenodd;clip-rule:evenodd;stroke-linecap:round;stroke-linejoin:round;stroke-miterlimit:1.5;">
    <g transform="matrix(1,0,0,1,-782.728167,-598.038324)">
        <g id="Speech-Bubble-version" serif:id="Speech Bubble version" transform="matrix(0.851727,-0.523986,0.523986,0.851727,111.137808,737.508754)">
            <path id="Outline" d="M564.235,413.678L564.288,413.722L563.225,410.17C563.562,408.828 563.915,407.49 564.275,406.154C564.656,404.743 565.047,403.334 565.443,401.927C566.386,398.582 567.363,395.247 568.36,391.917C569.525,388.022 570.719,384.136 571.935,380.257C573.307,375.88 574.707,371.513 576.134,367.154C577.723,362.301 579.345,357.458 581.004,352.628C582.583,348.028 584.196,343.439 585.851,338.866C587.361,334.692 588.906,330.531 590.499,326.389C591.95,322.616 593.44,318.859 594.99,315.126C595.873,313 596.776,310.883 597.707,308.778C598.442,307.115 599.195,305.46 599.972,303.816C600.583,302.523 601.209,301.237 601.857,299.962C602.438,298.815 603.037,297.678 603.66,296.554C604.228,295.531 604.816,294.519 605.435,293.526C605.726,293.06 606.024,292.599 606.331,292.144C606.618,291.716 606.914,291.295 607.22,290.88C607.664,290.279 608.13,289.694 608.628,289.137C608.863,288.874 609.106,288.618 609.357,288.37C609.604,288.128 609.859,287.894 610.125,287.673C610.589,287.285 611.087,286.934 611.619,286.646L612.24,286.419C615.304,280.339 620.583,274.804 622.991,272.582C624.032,271.621 624.794,271.133 624.979,271.042C626.752,270.174 628.894,270.886 629.795,272.643C632.804,278.511 634.713,284.644 635.035,291.158C643.867,294.059 658.108,299.123 664.115,301.267C667.566,295.49 672.797,289.858 677.479,286.753C692.773,276.607 720.434,277.193 720.434,277.193C721.72,277.227 722.892,277.94 723.513,279.067C724.133,280.194 724.11,281.566 723.45,282.671C723.45,282.671 716.172,294.872 705.398,304.633C699.527,309.951 692.624,314.476 685.314,316.249C685.273,316.717 685.194,317.269 685.059,317.897C684.608,319.997 683.531,323.594 681.969,328.28C673.341,354.157 649.668,414.474 639.458,436.606L639.407,436.717L639.404,436.718L639.403,436.721L639.405,436.721C637.781,440.237 636.474,442.818 635.61,444.207C635.21,444.851 634.854,445.317 634.579,445.617L633.719,446.36C631.815,447.624 629.164,448.081 626.225,447.796C621.274,447.316 615.308,444.738 613.194,444.084C612.869,443.984 612.154,443.729 611.142,443.356C612.245,446.087 613.288,448.911 613.669,450.679C615.179,457.682 612.126,470.997 612.126,470.997C611.817,472.295 610.821,473.318 609.532,473.66C608.243,474.002 606.87,473.608 605.958,472.635C605.958,472.635 601.281,467.804 598.275,456.65C594.076,469.595 584.319,481.99 584.319,481.99C583.375,483.187 581.782,483.665 580.335,483.185C578.888,482.705 577.896,481.371 577.854,479.847C577.854,479.847 577.456,462.604 579.878,455.028C580.708,452.433 581.77,449.772 582.914,447.214C580.781,449.218 578.466,451.153 576.078,452.765C573.076,454.792 555.458,462.785 555.458,462.785C554.126,463.386 552.564,463.128 551.496,462.131C550.428,461.134 550.063,459.592 550.572,458.223C550.572,458.223 555.517,444.978 566.081,437.467C570.628,434.233 574.585,432.059 577.896,430.6L576.966,430.238C576.966,430.238 570.505,427.793 566.331,424.429C563.91,422.478 562.282,420.139 561.937,417.879C561.826,417.153 562.157,414.429 563.206,410.247C562.882,411.536 563.29,412.898 564.269,413.797C564.735,414.225 565.296,414.515 565.892,414.655C565.985,414.214 566.094,413.725 566.218,413.191L564.269,413.797L564.235,413.678ZM563.206,410.247L563.224,410.173L564.235,413.678C563.961,413.443 562.736,412.262 563.206,410.247ZM662.453,304.518L662.633,303.985C662.542,304.153 662.465,304.325 662.402,304.5C662.419,304.506 662.436,304.512 662.453,304.518ZM616.208,286.671C616.072,286.411 615.78,286.207 615.289,286.083C614.763,285.95 614.164,286.055 613.931,286.108C613.853,286.125 613.777,286.144 613.704,286.165C613.678,286.018 613.606,285.945 613.478,285.97L613.457,285.974L612.389,286.364C612.705,286.188 613.049,286.058 613.414,285.982C613.004,286.067 612.66,286.2 612.374,286.37L612.389,286.364L612.289,286.422L612.213,286.473L612.216,286.467C611.473,286.937 610.913,287.671 610.666,288.546C610.361,289.629 610.579,290.778 611.227,291.665C611.261,291.627 611.294,291.59 611.328,291.552C611.365,291.51 611.403,291.469 611.44,291.428C611.052,290.152 610.553,287.625 612.213,286.473C611.922,287.054 611.65,287.641 611.404,288.229C611.743,287.418 612.394,286.534 613.704,286.165C613.819,286.817 613.044,288.93 612.425,290.471C612.432,290.466 612.439,290.46 612.446,290.454C612.725,290.221 613.023,290.005 613.343,289.832C613.597,289.694 613.868,289.584 614.152,289.529L614.16,289.527C614.16,289.527 614.552,289.65 614.695,289.645C614.72,289.62 614.746,289.594 614.771,289.568C615.183,288.59 615.67,287.62 616.208,286.671ZM678.881,313.428L678.881,313.426L678.823,313.428C678.842,313.428 678.862,313.428 678.881,313.428Z" style="fill:rgb(64,61,88);stroke:rgb(64,61,88);stroke-width:2.4px;"/>
            <g id="Tail">
                <path d="M581.475,479.747C581.475,479.747 590.821,467.899 594.833,455.522C597.635,446.875 597.443,434.288 597.443,434.288L594.538,433.189C594.538,433.189 586.807,445.25 583.328,456.132C581.024,463.338 581.475,479.747 581.475,479.747Z" style="fill:url(#_Linear1);stroke:rgb(74,28,28);stroke-width:2.4px;"/>
                <path d="M601.878,436.048C601.878,436.048 599.411,446.056 601.404,454.267C604.091,465.342 608.602,470.159 608.602,470.159C608.602,470.159 611.52,457.896 610.128,451.443C609.236,447.303 604.495,437.093 604.495,437.093L601.878,436.048Z" style="fill:url(#_Linear2);stroke:rgb(74,28,28);stroke-width:2.4px;"/>
                <path d="M589.523,431.286C589.523,431.286 581.859,430.692 568.18,440.419C558.485,447.312 553.968,459.483 553.968,459.483C553.968,459.483 571.129,451.736 574.051,449.763C583.33,443.499 591.415,432.091 591.415,432.091L589.523,431.286Z" style="fill:url(#_Linear3);stroke:rgb(74,28,28);stroke-width:2.4px;"/>
            </g>
            <path id="Ear" d="M665.883,305.584C668.89,299.471 674.515,293.065 679.481,289.771C694.019,280.128 720.34,280.815 720.34,280.815C720.34,280.815 700.881,313.428 678.823,313.428C678.82,313.428 678.831,312.865 677.678,312.873C675.325,312.888 671.572,312.817 670.484,312.247C666.46,310.138 665.872,305.608 665.883,305.584Z" style="fill:url(#_Linear4);stroke:rgb(74,28,28);stroke-width:2.4px;"/>
            <g id="Body">
                <g id="Outline1" serif:id="Outline" transform="matrix(0.999982,-0.005959,0.005959,0.999982,-258.124325,2.246896)">
                    <path d="M935.263,315.373L936.672,316.888C936.672,316.888 937.913,318.356 937.968,318.707C938.78,323.842 904.581,410.67 891.698,438.163L822.392,413.789C828.959,388.257 859.614,294.483 870.557,292.473C870.579,292.469 870.557,292.473 870.557,292.473C870.557,292.473 871.111,292.65 871.142,292.577C874.447,284.808 882.518,277.577 883.059,277.316C886.17,283.473 887.998,289.931 887.826,296.855C898.343,300.263 921.843,308.881 922.114,308.971" style="fill:url(#_Linear5);stroke:rgb(31,48,46);stroke-width:3px;stroke-linecap:butt;"/>
                </g>
                <g id="Outline2" serif:id="Outline" transform="matrix(0.999982,-0.005959,0.005959,0.999982,-258.124325,2.246896)">
                    <path d="M891.698,438.163C889.445,442.972 887.844,445.965 887.196,446.39C882.845,449.241 872.612,444.468 869.761,443.567C866.91,442.667 833.816,429.575 833.816,429.575C833.816,429.575 821.892,425.027 821.154,419.987C821.068,419.393 821.515,417.2 822.392,413.789" style="fill:url(#_Linear6);"/>
                </g>
                <g transform="matrix(0.999982,-0.005959,0.005959,0.999982,-258.124325,2.246896)">
                    <path d="M886.303,445.179C884.834,446.09 882.6,445.885 880.299,445.417C876.199,444.584 871.898,442.669 870.213,442.137C867.369,441.239 834.368,428.181 834.368,428.181C834.362,428.178 834.356,428.176 834.35,428.174C834.35,428.174 830.22,426.6 826.763,424.292C825.67,423.562 824.643,422.761 823.861,421.907C823.239,421.228 822.762,420.535 822.645,419.805C822.652,419.725 822.697,419.238 822.777,418.795C822.962,417.755 823.315,416.228 823.812,414.289C823.823,414.247 820.964,413.321 820.964,413.321C820.006,417.048 819.575,419.555 819.67,420.204C819.937,422.027 821.325,423.86 823.266,425.443C827.102,428.572 833.013,430.873 833.272,430.974C833.71,431.146 866.47,444.101 869.309,444.998C871.045,445.546 875.48,447.5 879.702,448.357C882.911,449.009 886.004,448.964 888.018,447.644C888.305,447.457 888.771,446.972 889.299,446.132C890.153,444.774 891.509,442.102 893.122,438.66L890.276,437.663C890.276,437.663 887.903,442.577 887.113,443.945C886.798,444.49 886.386,445.065 886.303,445.179Z" style="fill:rgb(74,28,28);"/>
                </g>
                <g id="Outline3" serif:id="Outline" transform="matrix(0.999982,-0.005959,0.005959,0.999982,-258.124325,2.246896)">
                    <path d="M932.988,312.019L930.69,315.379C932.521,316.316 935.582,316.179 938.749,315.787" style="fill:rgb(230,57,70);"/>
                    <path d="M931.455,315.15C934.248,316.106 938.409,315.227 938.629,315.297C938.868,315.374 939.007,315.65 939.245,315.726C939.031,315.856 938.963,316.16 938.749,316.29C938.746,316.293 937.469,316.448 936.446,316.519C935.116,316.612 932.26,316.755 930.468,315.827C930.251,315.715 930.178,315.496 930.192,315.335C930.236,314.832 933.237,311.071 933.093,312.091C933.086,312.143 932.668,313.212 932.228,313.973C932.07,314.245 931.733,314.745 931.455,315.15Z" style="fill:rgb(31,48,46);"/>
                </g>
                <g id="Outline4" serif:id="Outline" transform="matrix(0.999982,-0.005959,0.005959,0.999982,-258.124325,2.246896)">
                    <path d="M919.167,311.584C919.772,311.123 920.582,310.563 921.518,309.952" style="fill:none;stroke:rgb(31,48,46);stroke-width:1px;"/>
                </g>
                <g id="Outline5" serif:id="Outline" transform="matrix(0.999982,-0.005959,0.005959,0.999982,-258.124325,2.246896)">
                    <path d="M921.518,309.952C924.971,307.697 930.137,304.742 932.995,303.452C931.952,306.796 930.413,309.573 928.522,311.949C929.54,311.087 931.78,310.714 934.088,310.21C933.547,311.161 931.291,314.5 931.291,314.5" style="fill:rgb(62,94,91);stroke:rgb(31,48,46);stroke-width:1px;stroke-linecap:square;"/>
                </g>
            </g>
            <g id="Gem" transform="matrix(1,0,0,1,4.825139,-2.503768)">
                <path d="M629.331,338.754C628.13,338.293 627.415,332.024 628.85,328.55C630.285,325.076 634.028,322.098 635.453,322.668C636.877,323.237 637.135,328.053 636.053,331.311C634.971,334.569 630.531,339.214 629.331,338.754Z" style="fill:rgb(255,184,31);stroke:rgb(31,48,46);stroke-width:1.01px;"/>
            </g>
            <g id="Face" transform="matrix(-0.750299,-0.661098,-0.661098,0.750299,1328.665875,502.8358)">
                <g id="Circle" transform="matrix(0.962241,0,0,0.926573,-236.672307,-219.548353)">
                    <path d="M898.063,605.092C911.349,608.972 921.107,621.724 921.107,636.84C921.107,655.031 906.975,669.799 889.568,669.799C884.725,669.799 880.136,668.656 876.034,666.614" style="fill:none;stroke:rgb(179,255,251);stroke-width:3.19px;stroke-dasharray:9.564,31.879,95.638,0;"/>
                </g>
                <g id="Circle1" serif:id="Circle" transform="matrix(0.962241,0,0,0.926573,-236.672307,-219.548353)">
                    <path d="M876.034,666.614C865.392,661.316 858.03,649.969 858.03,636.84C858.03,618.649 872.162,603.88 889.568,603.88C892.511,603.88 895.36,604.302 898.063,605.092" style="fill:none;stroke:rgb(179,255,251);stroke-width:3.19px;stroke-dasharray:54.195,33.473,0,0;"/>
                </g>
                <g id="Mouth">
                    <path d="M610.931,362.473C610.931,362.473 612.31,370.37 618.78,370.636C626.782,370.965 627.925,363.833 627.925,363.833C627.925,363.833 623.536,365.33 619.559,365.047C615.205,364.737 610.931,362.473 610.931,362.473Z" style="fill:rgb(252,252,252);"/>
                    <path d="M616.467,364.06L614.709,369.427" style="fill:none;stroke:rgb(62,94,91);stroke-width:1px;"/>
                    <path d="M621.453,364.143L621.654,370.487" style="fill:none;stroke:rgb(62,94,91);stroke-width:1px;"/>
                </g>
                <g id="Eyes">
                    <g id="Right">
                        <path d="M605.158,358.317C603.91,358.317 597.017,356.077 598.587,341.323C600.041,327.662 607.197,324.179 608.707,324.154C610.218,324.128 615.788,324.561 614.624,340.895C613.503,356.619 606.405,358.317 605.158,358.317Z" style="fill:rgb(252,252,252);stroke:rgb(31,48,46);stroke-width:1px;"/>
                        <path d="M605.447,353.502C604.57,353.393 601.842,352.85 602.346,342.269C602.78,333.133 607.409,329.643 608.964,329.764C610.37,329.873 612.045,332.955 611.41,341.767C610.76,350.788 606.324,353.611 605.447,353.502Z" style="fill:rgb(110,219,215);stroke:rgb(31,48,46);stroke-width:1px;"/>
                        <path d="M598.694,341.086L602.391,341.076" style="fill:none;stroke:rgb(31,48,46);stroke-width:1px;"/>
                        <g transform="matrix(0.912645,-0.002047,-0.002047,0.999952,54.085447,1.267635)">
                            <path d="M611.609,341.162L614.831,341.124" style="fill:none;stroke:rgb(31,48,46);stroke-width:1.05px;"/>
                        </g>
                    </g>
                    <g id="Left">
                        <g transform="matrix(0.895032,0.446001,-0.446001,0.895032,253.348564,-221.336543)">
                            <path d="M607.466,358.263C602.111,361.343 596.63,355.67 598.216,340.917C599.871,325.524 607.255,322.997 609.508,323.445C611.761,323.894 616.928,330.293 615.455,341.943C614.037,353.158 608.484,357.678 607.466,358.263Z" style="fill:rgb(252,252,252);stroke:rgb(31,48,46);stroke-width:1px;"/>
                        </g>
                        <g transform="matrix(0.895032,0.446001,-0.446001,0.895032,253.348564,-221.336543)">
                            <path d="M606.246,353.357C605.056,353.91 600.885,352.905 602.337,340.445C603.395,331.361 608.028,329.24 609.01,329.46C609.898,329.658 612.529,332.404 611.895,341.216C611.245,350.237 607.097,352.961 606.246,353.357Z" style="fill:rgb(110,219,215);stroke:rgb(31,48,46);stroke-width:1px;"/>
                        </g>
                        <g transform="matrix(0.895032,0.446001,-0.446001,0.895032,253.348564,-221.336543)">
                            <path d="M598.834,337.135L602.665,338.295" style="fill:none;stroke:rgb(31,48,46);stroke-width:1px;"/>
                        </g>
                        <g transform="matrix(0.81776,0.405208,-0.447812,0.894076,301.191426,-196.079802)">
                            <path d="M612.151,340.803L615.769,342.05" style="fill:none;stroke:rgb(31,48,46);stroke-width:1.05px;"/>
                        </g>
                    </g>
                </g>
            </g>
            <g id="Camera">
                <path d="M612.417,306.491C612.412,305.176 613.928,300.153 618.798,301.049C624.45,302.089 633.439,306.625 632.557,310.229C631.942,312.745 630.318,315.303 628.401,315.273C624.728,315.214 618.756,312.841 615.734,311.541C613.631,310.637 612.427,308.736 612.417,306.491Z" style="fill:rgb(230,57,70);stroke:rgb(74,28,28);stroke-width:1.01px;"/>
                <g transform="matrix(1.03663,0,0,1.03663,-22.807652,-11.807281)">
                    <circle cx="618.471" cy="307.164" r="3.299" style="fill:rgb(71,97,151);stroke:rgb(74,28,28);stroke-width:0.98px;"/>
                </g>
                <g transform="matrix(0.855922,0,0,0.855922,98.316416,47.276718)">
                    <circle cx="618.471" cy="307.164" r="3.299" style="fill:rgb(118,118,118);stroke:rgb(74,28,28);stroke-width:1.18px;"/>
                </g>
            </g>
            <g id="Signal" transform="matrix(1.41479,1.205032,-1.205032,1.41479,802.900189,-826.411108)">
                <path d="M356.843,507.903C359.974,509.314 362.443,513.009 363.109,516.378" style="fill:none;stroke:rgb(110,219,215);stroke-width:3px;stroke-linecap:butt;"/>
                <g transform="matrix(1.963625,0,0,1.963625,-344.140116,-497.467082)">
                    <path d="M358.291,509.125C360.301,510.013 362.412,512.068 363.146,515.709" style="fill:none;stroke:rgb(110,219,215);stroke-width:1.53px;stroke-linecap:butt;"/>
                </g>
                <g transform="matrix(3.144735,0,0,3.144735,-767.320961,-1106.576616)">
                    <path d="M359.183,509.639C361.067,510.434 362.545,512.55 363.063,515.345" style="fill:none;stroke:rgb(110,219,215);stroke-width:0.95px;stroke-linecap:butt;"/>
                </g>
            </g>
        </g>
    </g>
    <defs>
        <linearGradient id="_Linear1" x1="0" y1="0" x2="1" y2="0" gradientUnits="userSpaceOnUse" gradientTransform="matrix(9.404223,3.565904,-3.565904,9.404223,584.902969,453.044379)"><stop offset="0" style="stop-color:rgb(179,0,13);stop-opacity:1"/><stop offset="0.19" style="stop-color:rgb(230,57,70);stop-opacity:1"/><stop offset="0.78" style="stop-color:rgb(230,57,70);stop-opacity:1"/><stop offset="1" style="stop-color:rgb(179,0,13);stop-opacity:1"/></linearGradient>
        <linearGradient id="_Linear2" x1="0" y1="0" x2="1" y2="0" gradientUnits="userSpaceOnUse" gradientTransform="matrix(13.964177,3.74709,-3.74709,13.964177,598.315506,450.846228)"><stop offset="0" style="stop-color:rgb(179,0,13);stop-opacity:1"/><stop offset="0.11" style="stop-color:rgb(214,39,52);stop-opacity:1"/><stop offset="0.2" style="stop-color:rgb(230,57,70);stop-opacity:1"/><stop offset="0.8" style="stop-color:rgb(230,57,70);stop-opacity:1"/><stop offset="1" style="stop-color:rgb(179,0,13);stop-opacity:1"/></linearGradient>
        <linearGradient id="_Linear3" x1="0" y1="0" x2="1" y2="0" gradientUnits="userSpaceOnUse" gradientTransform="matrix(10.976661,8.717027,-8.717027,10.976661,563.105689,445.462478)"><stop offset="0" style="stop-color:rgb(179,0,13);stop-opacity:1"/><stop offset="0.18" style="stop-color:rgb(230,57,70);stop-opacity:1"/><stop offset="0.75" style="stop-color:rgb(230,57,70);stop-opacity:1"/><stop offset="1" style="stop-color:rgb(179,0,13);stop-opacity:1"/></linearGradient>
        <linearGradient id="_Linear4" x1="0" y1="0" x2="1" y2="0" gradientUnits="userSpaceOnUse" gradientTransform="matrix(-13.47163,-10.137078,10.137078,-13.47163,682.496145,298.017507)"><stop offset="0" style="stop-color:rgb(230,57,70);stop-opacity:1"/><stop offset="1" style="stop-color:rgb(179,0,13);stop-opacity:1"/></linearGradient>
        <linearGradient id="_Linear5" x1="0" y1="0" x2="1" y2="0" gradientUnits="userSpaceOnUse" gradientTransform="matrix(76.914954,30.469954,-30.469954,76.914954,841.468534,348.756883)"><stop offset="0" style="stop-color:rgb(20,54,51);stop-opacity:1"/><stop offset="0.09" style="stop-color:rgb(49,82,79);stop-opacity:1"/><stop offset="0.17" style="stop-color:rgb(62,94,91);stop-opacity:1"/><stop offset="0.9" style="stop-color:rgb(62,94,91);stop-opacity:1"/><stop offset="1" style="stop-color:rgb(20,54,51);stop-opacity:1"/></linearGradient>
        <linearGradient id="_Linear6" x1="0" y1="0" x2="1" y2="0" gradientUnits="userSpaceOnUse" gradientTransform="matrix(76.914954,30.469954,-30.469954,76.914954,841.468534,348.756883)"><stop offset="0" style="stop-color:rgb(179,0,13);stop-opacity:1"/><stop offset="0.14" style="stop-color:rgb(230,57,70);stop-opacity:1"/><stop offset="0.89" style="stop-color:rgb(230,57,70);stop-opacity:1"/><stop offset="1" style="stop-color:rgb(179,0,13);stop-opacity:1"/></linearGradient>
    </defs>
</svg>
